<?xml version="1.0" encoding="UTF-8" standalone="no"?>
<!-- Created with Inkscape (http://www.inkscape.org/) -->

<svg
   width="200mm"
   height="200mm"
   viewBox="0 0 200 200"
   version="1.1"
   id="svg5"
   xml:space="preserve"
   xmlns="http://www.w3.org/2000/svg"
   xmlns:svg="http://www.w3.org/2000/svg"><defs
     id="defs2" /><g
     id="layer1"><g
       id="g3926"
       transform="matrix(1.3357509,0,0,1.3357509,-39.647055,-35.447246)"><path
         d="m 127.97976,152.08862 q -9.74995,0 -16.48207,-6.53697 -6.73211,-6.53695 -6.73211,-16.00429 0,-9.46731 6.73211,-16.00426 6.73212,-6.53696 16.48207,-6.53696 4.33332,0 7.81544,1.20221 3.48213,1.2022 6.11306,3.30604 V 43.890691 h 36.21411 v 20.28712 h -26.92844 v 65.369549 q 0,9.46734 -6.7321,16.00429 -6.73212,6.53697 -16.48207,6.53697 z"
         id="path251"
         style="display:inline;fill:#81a1c1;fill-opacity:1;stroke-width:0.152502" /><path
         style="fill:#81a1c1;fill-opacity:1;stroke:none;stroke-width:0;stroke-dasharray:none;stroke-opacity:1"
         d="M 235.34905,656.65785 C 181.87184,649.91722 130.77982,626.05316 90.827707,589.1548 52.871399,554.0997 24.451972,503.28771 14.716154,453.07253 6.990612,413.22591 9.6869553,363.88793 21.53952,328.21782 51.602273,237.74444 123.57505,174.01875 217.56327,154.65569 c 13.67026,-2.81629 18.78117,-3.15558 46.71604,-3.10127 34.9519,0.0679 44.82491,1.48919 74.51228,10.72624 78.35587,24.37997 139.8696,84.81316 165.6391,162.7295 20.52394,62.05596 15.99588,130.52692 -12.46719,188.52219 -13.83714,28.19404 -25.5627,44.96307 -46.78635,66.91043 -38.52025,39.83376 -86.28032,64.93152 -141.52289,74.36986 -14.32553,2.44754 -54.84289,3.5421 -68.30521,1.84521 z M 304.989,618.72987 c 41.1532,-7.34911 78.21214,-26.57448 109.26057,-56.68203 32.33138,-31.35163 50.98772,-63.41137 61.81942,-106.23277 2.97122,-11.74628 3.45951,-17.03629 4.07041,-44.09815 0.80484,-35.65372 -0.32948,-46.92494 -7.09297,-70.47882 -19.14217,-66.66277 -76.02806,-124.9561 -141.36255,-144.86008 -25.159,-7.66462 -34.29282,-8.83062 -68.73932,-8.7751 -34.53281,0.0557 -46.27747,1.71544 -71.33654,10.0814 -69.16153,23.08954 -127.064186,88.19538 -141.489315,159.09081 -5.827208,28.63908 -5.31719,72.58948 1.149298,99.03994 10.027044,41.01451 27.15364,71.11603 58.144987,102.19497 36.74321,36.84706 75.99564,56.31036 126.36448,62.65775 13.63142,1.71782 55.26878,0.55197 69.21153,-1.93792 z"
         id="path4233"
         transform="matrix(0.19807835,0,0,0.19807835,29.681474,26.537318)" /><path
         style="fill:#81a1c1;fill-opacity:1;stroke:#000000;stroke-width:0;stroke-dasharray:none;stroke-opacity:1"
         d="m 241.39689,505.18555 c -19.96447,-3.97667 -35.97659,-12.83467 -51.84682,-28.68195 -8.9143,-8.90141 -12.69381,-13.93299 -17.54555,-23.35802 -10.41918,-20.24039 -11.16871,-23.55668 -11.16182,-49.38553 0.006,-21.41426 0.21636,-23.29129 3.74473,-33.3686 5.89015,-16.82268 13.6347,-29.23343 26.28096,-42.1156 12.79588,-13.03458 24.46779,-20.53675 40.70969,-26.16635 9.79045,-3.39347 12.34202,-3.70496 30.69911,-3.74765 17.02753,-0.0396 21.60877,0.41308 30.63896,3.02756 21.26004,6.15534 41.44679,20.21357 55.27592,38.49465 14.70996,19.44549 20.45333,37.20456 20.65776,63.87599 0.15583,20.33 -1.73954,29.11483 -9.85397,45.67219 -6.5268,13.31785 -22.2174,30.59687 -36.26371,39.93485 -22.92289,15.2391 -53.94966,21.27334 -81.33526,15.81846 z m 34.40754,-77.64393 c 7.80442,-4.035 12.7269,-12.84969 12.67976,-22.70565 -0.0207,-4.32857 -0.7102,-9.64492 -1.53222,-11.81411 -5.98573,-15.7955 -29.36095,-20.31364 -42.518,-8.2182 -10.54601,9.69507 -10.52524,29.56968 0.0411,39.28611 7.72346,7.10224 21.36236,8.60496 31.3294,3.45185 z"
         id="path4235"
         transform="matrix(0.19807835,0,0,0.19807835,29.681474,26.537318)" /></g></g></svg>
